<?xml version="1.0" standalone="no"?>
<!DOCTYPE svg PUBLIC "-//W3C//DTD SVG 20010904//EN"
 "http://www.w3.org/TR/2001/REC-SVG-20010904/DTD/svg10.dtd">
<svg version="1.0" xmlns="http://www.w3.org/2000/svg"
 width="514.000000pt" height="360.000000pt" viewBox="0 0 514.000000 360.000000"
 preserveAspectRatio="xMidYMid meet">

<g transform="translate(0.000000,360.000000) scale(0.100000,-0.100000)"
fill="#000000" stroke="none">
<path d="M0 1800 l0 -1800 2570 0 2570 0 0 1800 0 1800 -2570 0 -2570 0 0
-1800z m2935 1170 c14 -5 30 -21 35 -36 13 -34 -26 -125 -208 -482 -73 -145
-131 -266 -129 -268 3 -3 65 30 138 72 74 43 144 77 156 76 13 -1 22 3 20 10
-3 17 143 73 242 94 115 23 323 16 398 -13 106 -42 143 -89 143 -183 0 -84
-23 -134 -97 -211 -94 -98 -253 -186 -465 -255 -48 -15 -85 -31 -83 -34 3 -4
39 -10 82 -14 193 -17 316 -78 356 -176 60 -145 7 -306 -155 -475 -111 -117
-229 -201 -393 -280 -260 -126 -531 -186 -780 -172 -123 7 -189 26 -242 71
-80 69 -114 228 -68 321 25 52 149 174 206 203 24 12 35 17 25 10 -11 -7 -36
-28 -55 -47 l-36 -33 35 21 c61 38 182 97 255 125 64 24 132 59 80 41 -11 -4
-32 -11 -47 -15 -15 -5 -58 -20 -94 -35 -36 -15 -68 -24 -70 -22 -11 10 222
93 329 118 l52 11 152 307 c153 309 253 485 286 505 15 9 22 6 38 -13 25 -31
24 -69 -5 -111 -80 -120 -363 -670 -344 -670 9 0 8 -3 -2 -10 -13 -8 -12 -10
4 -10 10 0 25 8 32 18 9 11 13 13 14 4 0 -18 172 -6 214 14 39 19 146 19 146
0 0 -21 -23 -26 -134 -26 -93 0 -248 -14 -287 -26 -9 -2 -20 -19 -25 -37 -12
-39 -35 -45 -63 -16 -20 22 -23 22 -72 10 -85 -22 -228 -83 -319 -136 -97 -58
-222 -171 -253 -230 -53 -103 -35 -159 68 -210 60 -30 60 -30 230 -29 134 0
191 5 270 22 114 24 138 23 38 -2 -38 -10 -75 -21 -83 -25 -8 -4 -35 -8 -60
-10 -25 -2 -51 -8 -59 -14 -9 -8 -59 -12 -144 -11 -113 1 -132 4 -143 19 -8
11 -28 19 -49 19 -29 1 -39 8 -56 35 -11 18 -23 31 -26 28 -8 -9 33 -61 70
-90 28 -21 49 -27 118 -32 149 -12 174 -12 186 -3 6 5 56 11 110 13 83 3 146
14 236 41 9 3 15 9 12 14 -3 4 3 6 12 4 28 -7 202 52 234 79 10 9 35 25 56 36
62 32 140 91 120 91 -9 0 -34 -11 -55 -23 -49 -32 -90 -50 -190 -87 -124 -45
-133 -36 -12 14 138 56 188 82 298 156 283 189 442 446 346 560 -49 57 -118
81 -294 100 -58 6 -129 15 -159 21 -30 5 -67 9 -82 9 -36 0 -53 28 -41 72 6
22 16 35 33 40 325 93 536 190 661 306 69 65 88 96 88 151 0 50 -37 84 -116
107 -72 21 -262 20 -374 -1 -98 -19 -133 -36 -405 -193 -110 -64 -236 -132
-280 -152 -175 -81 -348 -127 -516 -137 l-105 -6 -137 -181 c-196 -259 -275
-338 -322 -320 -25 10 -18 24 58 103 39 42 103 115 142 164 38 48 73 87 77 87
4 0 8 5 8 10 0 6 22 39 50 74 l50 63 -85 7 c-157 13 -234 52 -205 105 14 27
36 26 159 -3 150 -37 280 -42 421 -17 63 11 151 32 195 47 96 32 215 90 215
105 0 5 -4 8 -10 4 -5 -3 -5 7 1 25 13 36 22 40 13 5 -5 -19 -2 -25 10 -25 9
0 13 6 10 14 -3 8 4 23 15 32 13 11 17 21 10 25 -7 4 -6 11 3 20 7 8 14 19 15
24 6 42 9 51 18 61 7 8 12 8 17 1 3 -5 20 18 37 52 18 34 29 66 26 70 -3 5 9
40 26 78 38 86 23 72 -31 -29 -23 -43 -44 -78 -47 -78 -2 0 24 53 58 118 136
257 180 345 175 350 -20 19 -699 -641 -818 -796 -27 -35 -38 -42 -66 -42 -19
0 -32 4 -30 9 9 28 336 379 558 602 234 234 356 339 395 339 8 0 25 -4 40 -10z
m-274 -563 c-10 -9 -11 -8 -5 6 3 10 9 15 12 12 3 -3 0 -11 -7 -18z m-144
-479 c-73 -168 -115 -270 -157 -384 -28 -76 -59 -145 -68 -151 -22 -18 -40
-16 -45 5 -3 12 -5 11 -6 -6 -1 -14 -5 -20 -12 -17 -6 4 -17 -1 -25 -11 -18
-21 -19 -29 13 68 16 49 33 64 33 28 0 -11 -4 -20 -10 -20 -5 0 -10 -5 -10
-10 0 -7 7 -7 21 0 11 7 18 18 15 25 -3 8 0 17 6 21 7 5 7 8 -1 13 -5 4 -8 17
-4 29 3 12 9 20 13 17 5 -3 11 -1 15 5 3 5 1 10 -4 10 -6 0 -11 5 -11 10 0 6
6 10 14 10 8 0 17 7 20 16 3 8 2 12 -4 9 -14 -8 -13 -2 6 46 11 26 20 36 24
28 6 -8 11 -5 19 10 7 11 9 21 7 21 -3 0 -1 11 4 25 6 16 6 25 0 25 -5 0 -7 7
-3 16 5 13 8 13 15 2 6 -9 7 -6 3 9 -4 14 3 42 17 73 18 38 32 55 63 70 47 23
59 24 52 8z m-172 -183 c-31 -76 -54 -144 -51 -152 3 -8 2 -11 -3 -8 -5 3 -13
-4 -16 -16 -4 -11 -9 -19 -11 -16 -3 2 26 79 62 171 37 92 69 165 71 162 2 -2
-21 -66 -52 -141z m-175 -489 c0 -2 -7 -7 -16 -10 -8 -3 -12 -2 -9 4 6 10 25
14 25 6z m505 -476 c-11 -5 -27 -9 -35 -9 -9 0 -8 4 5 9 11 5 27 9 35 9 9 0 8
-4 -5 -9z"/>
<path d="M2825 2928 c-65 -52 -288 -254 -310 -279 -18 -22 -17 -21 10 2 17 14
98 83 180 154 177 151 182 155 169 155 -5 0 -27 -14 -49 -32z"/>
<path d="M3230 2416 c-127 -25 -230 -50 -230 -57 0 -9 31 -4 100 15 95 27 131
31 300 30 109 0 154 3 135 8 -52 16 -236 18 -305 4z"/>
<path d="M2655 2339 c-4 -6 -5 -12 -2 -15 2 -3 7 2 10 11 7 17 1 20 -8 4z"/>
<path d="M2627 2283 c-4 -3 -7 -11 -7 -17 0 -6 5 -5 12 2 6 6 9 14 7 17 -3 3
-9 2 -12 -2z"/>
<path d="M3205 1871 c-22 -10 -91 -35 -152 -55 -73 -24 -113 -43 -113 -52 0
-8 6 -14 13 -14 40 0 212 72 276 116 42 28 32 31 -24 5z"/>
<path d="M2758 1707 c-32 -25 -53 -73 -37 -83 18 -11 40 16 29 37 -8 15 -7 17
4 13 8 -3 19 3 26 16 18 33 7 42 -22 17z m-18 -67 c0 -5 -5 -10 -11 -10 -5 0
-7 5 -4 10 3 6 8 10 11 10 2 0 4 -4 4 -10z"/>
</g>
</svg>
